<svg xmlns="http://www.w3.org/2000/svg" width="400" height="400" viewBox="0 0 400 400">
  <defs>
    <style>
      .icon {
        stroke: hsl(0 0% 50% / 0.07); /* Cor do ícone com opacidade muito baixa */
        stroke-width: 1.5;
        fill: none;
        stroke-linecap: round;
        stroke-linejoin: round;
      }
    </style>
  </defs>
  
  <path class="icon" transform="translate(50 50) scale(1.5)" d="M2 3h6a4 4 0 0 1 4 4v14a3 3 0 0 0-3-3H2z"></path>
  <path class="icon" transform="translate(50 50) scale(1.5)" d="M22 3h-6a4 4 0 0 0-4 4v14a3 3 0 0 1 3-3h7z"></path>

  <path class="icon" transform="translate(200 80) scale(1.8) rotate(30)" d="M20.24 12.24a6 6 0 0 0-8.49-8.49L5 10.5V19h8.5z"></path>
  <path class="icon" transform="translate(200 80) scale(1.8) rotate(30)" d="m2.05 17.95.01-.01"></path>
  
  <circle class="icon" transform="translate(100 250) scale(1.6)" cx="6" cy="15" r="4"></circle>
  <circle class="icon" transform="translate(100 250) scale(1.6)" cx="18" cy="15" r="4"></circle>
  <path class="icon" transform="translate(100 250) scale(1.6)" d="M10 15h4"></path>
  <path class="icon" transform="translate(100 250) scale(1.6)" d="M2.5 13 5 7c.7-1.3 1-1.5 3-1.5s2.3.2 3 1.5L13.5 13"></path>
  
  <path class="icon" transform="translate(300 200) scale(1.7) rotate(-15)" d="M17 8h1a4 4 0 1 1 0 8h-1"></path>
  <path class="icon" transform="translate(300 200) scale(1.7) rotate(-15)" d="M3 8h14v9a4 4 0 0 1-4 4H7a4 4 0 0 1-4-4Z"></path>
  <line class="icon" transform="translate(300 200) scale(1.7) rotate(-15)" x1="6" x2="6" y1="2" y2="4"></line>
  <line class="icon" transform="translate(300 200) scale(1.7) rotate(-15)" x1="10" x2="10" y1="2" y2="4"></line>
  <line class="icon" transform="translate(300 200) scale(1.7) rotate(-15)" x1="14" x2="14" y1="2" y2="4"></line>
</svg>