<svg xmlns="http://www.w3.org/2000/svg" viewBox="0 0 512 512" id="businessman">
  <g>
    <path fill="#3d3c3b" d="M256 32c-113.973 3.156-128 72.742-128 150.794h256C384 104.742 369.973 35.156 256 32"></path>
    <path fill="#363544" d="M126.868 361.406a30 30 0 0 0-28.123 29.942v40.65c0 17.368 3.505 25.504 31.451 31.45 0 0 94.082 16.552 125.804 16.552s125.804-16.551 125.804-16.551c27.946-5.947 31.451-14.083 31.451-31.451v-40.65a30 30 0 0 0-28.123-29.942l-129.117-8.095Z"></path>
    <path fill="#cce2ea" d="M208.823 353.169h94.354v43.141L256 479.966l-47.177-79.419v-47.378z"></path>
    <path fill="#494859" d="M261 414.986h-10l-11.989 48.274L256 480l16.989-16.74Z"></path>
    <circle cx="256" cy="415.994" r="15.447" fill="#494859"></circle>
    <path fill="#eaf6fc" d="M208.823 353.17 256 400.546l-29.343 29.4s-34.51-38.568-17.834-76.778zm94.354 0L256 400.546l29.343 29.4s34.51-38.568 17.834-76.778z"></path>
    <path fill="#3f3e4e" d="M167.32 389.708c6.406-10.894 23.935-29.073 41.503-36.337 0 30.629 16.545 61.247 47.177 126.595l-.042.034c-11.06-.005-29.67-2.015-49.23-4.63-10.628-20.787-25.317-47.563-25.317-53.919-.292-5.451 7.24-8.282 16.311-13.608l-26.729-8.575a6.56 6.56 0 0 1-3.672-9.56ZM344.68 389.708c-6.406-10.894-23.935-29.073-41.504-36.337 0 30.629-16.544 61.247-47.176 126.595l.042.034c11.06-.005 29.67-2.015 49.23-4.63 10.628-20.787 25.317-47.563 25.317-53.919.292-5.451-7.24-8.282-16.311-13.608l26.729-8.575a6.56 6.56 0 0 0 3.672-9.56Z"></path>
    <path fill="#bd7768" d="m256 400.547 47.177-47.176V321.92h-94.354v31.451L256 400.547z"></path>
    <path fill="#b56959" d="M208.823 353.17c12.92 5.95 28.387 9.636 47.177 9.636s34.257-3.686 47.176-9.637v-21.814h-94.353Z"></path>
    <path fill="#bd7768" d="M364.843 252.437a7.93 7.93 0 0 1 6.51-6.507 31.73 31.73 0 0 0 26.177-30.944v-23.588a31.736 31.736 0 0 0-26.36-30.976 8.012 8.012 0 0 1-6.477-6.178 63.114 63.114 0 0 0-61.516-49.336h-94.353a63.114 63.114 0 0 0-61.516 49.336 8.012 8.012 0 0 1-6.476 6.178 31.736 31.736 0 0 0-26.361 30.976v23.588a31.73 31.73 0 0 0 26.176 30.944 7.93 7.93 0 0 1 6.51 6.507c5.506 34.359 27.08 96.215 108.843 96.215s103.337-61.856 108.843-96.215Z"></path>
    <circle cx="207.651" cy="195.812" r="15.664" fill="#3d3c3b" transform="rotate(-45 207.65 195.812)"></circle>
    <circle cx="304.356" cy="195.812" r="15.664" fill="#3d3c3b" transform="rotate(-45 304.356 195.812)"></circle>
    <path fill="#161615" d="m385.445 356.416-74.047-4.643q-1.6-.865-3.222-1.64v-6.818c1.314-.6 50.1-18.298 61.604-90.087a2.93 2.93 0 0 1 2.462-2.377 36.583 36.583 0 0 0 30.287-35.865v-23.588a36.226 36.226 0 0 0-13.893-28.504C386.051 97.265 368.01 30.1 256.138 27.002l-.138-.004-.138.004c-126.402 3.5-130.754 92.15-132.497 135.892a36.225 36.225 0 0 0-13.894 28.504v23.588a36.583 36.583 0 0 0 30.287 35.865 2.93 2.93 0 0 1 2.462 2.377c11.508 71.811 60.326 89.504 61.604 90.087v6.818q-1.623.774-3.225 1.642l-74.044 4.641a35.064 35.064 0 0 0-32.81 34.932v40.65c0 19.92 5.112 29.894 35.41 36.342l.174.033C130.667 468.61 223.783 485 256 485s125.333-16.391 126.67-16.627l.174-.033c30.298-6.448 35.41-16.423 35.41-36.342v-40.65a35.063 35.063 0 0 0-32.809-34.932Zm-73.699 55.738c1.794 1.054 3.481 1.986 5.113 2.887 3.294 1.82 8.806 4.865 8.737 6.143-.123 4.467-10.708 24.785-18.446 39.668-1.743 3.354-3.476 6.685-5.13 9.9-13.226 1.742-26.583 3.29-38.037 3.983 25.596-54.35 41.393-85.127 43.85-113.496 14.101 8.058 27.436 22.328 32.536 31.003a1.562 1.562 0 0 1-.89 2.264l-37.37 11.99ZM209.98 470.752c-1.654-3.215-3.386-6.546-5.13-9.9-7.774-14.953-18.324-35.205-18.446-39.668-.082-1.536 5.432-4.087 23.488-14.688l-37.37-11.99a1.56 1.56 0 0 1-.89-2.264c5.1-8.674 18.435-22.944 32.535-31.003 2.467 28.469 18.367 59.386 43.85 113.497-11.394-.69-24.693-2.226-38.037-3.984ZM256 407.625l10.263 10.283c-2.11 11.328-18.417 11.326-20.526 0Zm-18.007 18.042a20.551 20.551 0 0 0 3.931 5.12l-1.237 4.981q-2.105-4.501-4.056-8.736Zm12.992 10.125a19.745 19.745 0 0 0 10.03 0l3.552 14.302c-2.63 5.563-5.443 11.5-8.567 18.124-3.076-6.523-5.782-12.234-8.567-18.123Zm20.328-.024-1.237-4.982a20.55 20.55 0 0 0 3.93-5.12l1.363 1.365q-1.949 4.236-4.056 8.737Zm8.47-18.47-16.715-16.748 34.033-34.033c-2.28 14.444-8.176 30.284-17.317 50.781Zm18.393-65.999L256 393.476l-42.176-42.177v-4.04q18.939 6.375 42.176 6.394 23.213 0 42.176-6.395Zm-49.244 49.251-16.716 16.748c-9.14-20.497-15.037-36.337-17.317-50.781ZM256 37.002c115.763 3.263 120.137 80.974 122.352 120.176a37.569 37.569 0 0 0-6.322-1.681 2.998 2.998 0 0 1-2.456-2.335 68.428 68.428 0 0 0-66.398-53.254h-94.352a68.43 68.43 0 0 0-66.399 53.254 2.997 2.997 0 0 1-2.454 2.335 37.579 37.579 0 0 0-6.318 1.68C136.036 115.181 142.09 40.213 256 37.001ZM152.094 251.646a12.976 12.976 0 0 0-10.558-10.636 26.59 26.59 0 0 1-22.065-26.023v-23.59c0-12.637 9.552-23.837 22.22-26.05a13.003 13.003 0 0 0 10.498-10.021 58.365 58.365 0 0 1 56.635-45.418h94.352a58.364 58.364 0 0 1 56.635 45.417 13.004 13.004 0 0 0 10.498 10.022c12.668 2.213 22.22 13.413 22.22 26.05v23.59a26.59 26.59 0 0 1-22.065 26.023 12.976 12.976 0 0 0-10.558 10.636C354.4 286.008 333.58 343.653 256 343.653s-98.4-57.645-103.906-92.007Zm-48.349 180.352v-40.65a25.045 25.045 0 0 1 23.436-24.951l57.47-3.603c-9.85 8.294-17.757 17.774-21.64 24.38a11.56 11.56 0 0 0 6.455 16.855l15.881 5.095c-5.178 3.178-9.183 6.756-8.935 12.475.106 5.819 6.378 18.502 19.565 43.866l1.887 3.633c-32.468-4.582-64.752-10.214-66.715-10.558-26.295-5.61-27.404-12.197-27.404-26.542Zm304.51 0c0 14.345-1.109 20.932-27.404 26.542-1.963.344-34.247 5.976-66.715 10.557l1.887-3.632c13.187-25.364 19.46-38.048 19.565-43.866.248-5.72-3.757-9.297-8.936-12.476l15.882-5.094a11.56 11.56 0 0 0 6.456-16.856c-3.884-6.605-11.792-16.087-21.643-24.38l57.473 3.604a25.044 25.044 0 0 1 23.435 24.95Z"></path>
    <path fill="#161615" d="M207.65 175.148a20.664 20.664 0 1 0 20.665 20.664 20.688 20.688 0 0 0-20.664-20.664zm0 31.328a10.664 10.664 0 1 1 10.665-10.664 10.676 10.676 0 0 1-10.664 10.664zm96.706 10a20.664 20.664 0 1 0-20.665-20.664 20.688 20.688 0 0 0 20.665 20.664zm0-31.328a10.664 10.664 0 1 1-10.665 10.664 10.676 10.676 0 0 1 10.665-10.664z"></path>
  </g>
</svg>
