<svg xmlns="http://www.w3.org/2000/svg" width="512" height="512" viewBox="0 0 512 512" id="curley-hair">
  <path d="M130.536,412.994c-13.062-1.7-26.335-3.454-38.376-8.8s-22.895-14.87-26.645-27.5c-3.865-13.015.4-27.359,8.1-38.546s18.49-19.8,29.121-28.249a76.406,76.406,0,0,1-11.68-127.98c-14.349-12.511-19.18-34.742-11.317-52.079s27.77-28.349,46.635-25.8c-10.738-11.377-12.248-29.652-5.648-43.836s20.166-24.341,35-29.3,30.887-5.173,46.435-3.436C215.5,4.777,249.311-2.58,270.872,12.532c11.117-9.546,30.1-7.02,44.121-2.754a44.574,44.574,0,0,1,29.421,30.159,55.034,55.034,0,0,1,45.931,77.9c24.275,10.841,41.228,36.406,41.771,62.985s-15.354,52.815-39.166,64.637c13.249,7.543,26.761,15.3,36.812,26.76s16.179,27.525,11.965,42.176c-2.436,8.465-8.126,16.041-8.664,24.834-.54,8.847,4.221,17.01,7.381,25.292,9.674,25.356,3.642,55.992-14.922,75.788s-48.75,27.783-74.675,19.756c-35.106,22.321-78.549,35.183-118.755,24.5C192.793,474.114,158.608,442.414,130.536,412.994Z"></path>
  <path fill="#fff" d="M339.133 284.657a29.746 29.746 0 1129.746-29.746A29.779 29.779 0 01339.133 284.657zm0-57.492a27.746 27.746 0 1027.746 27.746A27.778 27.778 0 00339.133 227.165zM169.219 284.657a29.746 29.746 0 1129.746-29.746A29.779 29.779 0 01169.219 284.657zm0-57.492a27.746 27.746 0 1027.746 27.746A27.778 27.778 0 00169.219 227.165z"></path>
  <path fill="#fff" d="M180.293,231.409a15.076,15.076,0,0,1-5.842-1.2c-12.177-5.173-20.324-32.081-15.029-49.641,1.7-5.649,5.57-12.394,14.33-12.45,5.726,0,11.641,4.172,15.512,10.888,3.24,5.62,5.263,12.941,6.185,22.38.812,8.3.542,19.526-5.353,25.825A13.274,13.274,0,0,1,180.293,231.409Z"></path>
  <path d="M173.828,169.615c5.116,0,10.532,3.884,14.137,10.137,3.131,5.431,5.091,12.555,5.991,21.777.782,8,.556,18.765-4.956,24.653a11.784,11.784,0,0,1-8.707,3.726,13.572,13.572,0,0,1-5.255-1.082c-11.373-4.831-19.192-31.2-14.18-47.828,2.264-7.513,6.606-11.342,12.9-11.383h.066m0-3h-.086c-8.342.054-13.379,5.628-15.757,13.517-5.213,17.293,2.35,45.707,15.881,51.455a16.469,16.469,0,0,0,6.427,1.321,14.751,14.751,0,0,0,10.9-4.676c5.974-6.382,6.691-17.38,5.751-27-.792-8.114-2.524-16.3-6.378-22.983-3.838-6.659-10.063-11.639-16.736-11.639Z"></path>
  <path d="M170.085,181.924c8.982-3.6,19.967,3.54,20.329,13.21,0,.008.324,1.032.327,1.04-6.57-3.788-15.432-.057-18.938,6.138-3.277,6.086-.281,14.686,6,17.745a.5.5,0,0,1-.363.932c-7.819-2.447-11.85-12.6-7.939-19.9,3.757-6.993,13.849-11.12,20.682-6.276,0-.008-.766.541-.757.509A18.115,18.115,0,0,0,170.316,182.9a.507.507,0,0,1-.231-.973Z"></path>
  <path fill="#fff" d="M332.142,231.408c-8.76-.055-12.628-6.8-14.33-12.449-5.3-17.56,2.852-44.469,15.03-49.642a15.072,15.072,0,0,1,5.84-1.2,13.272,13.272,0,0,1,9.8,4.2c5.9,6.3,6.165,17.52,5.354,25.825-.922,9.439-2.945,16.76-6.186,22.38-3.871,6.715-9.786,10.888-15.436,10.888Z"></path>
  <path d="M338.682,169.615a11.786,11.786,0,0,1,8.708,3.726C352.9,179.229,353.127,190,352.346,198c-.9,9.222-2.861,16.345-5.992,21.777-3.6,6.252-9.021,10.136-14.137,10.136h-.066c-6.3-.04-10.639-3.869-12.9-11.382-5.012-16.625,2.808-43,14.181-47.828a13.572,13.572,0,0,1,5.254-1.083m0-3a16.478,16.478,0,0,0-6.427,1.322c-13.531,5.747-21.094,34.162-15.88,51.455,2.378,7.889,7.415,13.463,15.757,13.516h.085c6.673,0,12.9-4.98,16.736-11.638,3.854-6.687,5.586-14.869,6.379-22.983.939-9.615.223-20.613-5.752-27a14.747,14.747,0,0,0-10.9-4.676Z"></path>
  <path d="M341.334,182.9a19.3,19.3,0,0,0-19.116,12.429l-.756-.518c4.914-3.962,12.374-2.389,16.987,1.351,9.026,6.67,6.38,21.641-4.244,24.83a.5.5,0,0,1-.363-.932,13.592,13.592,0,0,0,6.393-7.947,12.439,12.439,0,0,0-.687-9.638c-3.305-5.664-11.076-9.415-17.558-6.812l-1.11.462.354-.98a13.2,13.2,0,0,1,1.844-6.71c3.425-6.267,11.911-9.509,18.487-6.508a.513.513,0,0,1-.231.973Z"></path>
  <path fill="#fff" d="M51.97,509.64c1.456-9.931,11.264-62.709,59.507-106.368,13.525-12.239,36.3-24.051,67.681-35.107,4.737-1.683,9.9-3.413,16.249-5.446l.219-.071.187-.131a49.08,49.08,0,0,0,7.294-6.375,69.361,69.361,0,0,0,12.3-18.382c4.926-10.389,7.093-25.255,6.439-44.18a211.657,211.657,0,0,0-2.165-23.54h72.43a211.657,211.657,0,0,0-2.165,23.54c-.654,18.925,1.513,33.791,6.44,44.182,6.285,13.241,13.759,20.5,18.922,24.26l.2.145.232.073c40.316,12.766,68.853,26.571,84.818,41.031,48.245,43.663,58.027,96.444,59.477,106.369Z"></path>
  <path d="M290.37,271.54a212.615,212.615,0,0,0-1.924,21.987c-.662,19.168,1.553,34.267,6.584,44.879,6.422,13.528,14.092,20.969,19.394,24.829l.4.288.465.147c40.109,12.7,68.459,26.4,84.263,40.714a191.544,191.544,0,0,1,49.592,71.577,162.138,162.138,0,0,1,9.147,32.179H53.715a162.316,162.316,0,0,1,9.161-32.178,191.688,191.688,0,0,1,49.607-71.578c13.377-12.105,35.978-23.815,67.181-34.807,4.717-1.676,9.865-3.4,16.2-5.43l.437-.14.375-.264a50.688,50.688,0,0,0,7.513-6.561,70.9,70.9,0,0,0,12.571-18.777c10.091-21.284,6.261-55.747,4.664-66.865H290.37m3.5-3H217.92s7.76,44.05-3.87,68.58a67.752,67.752,0,0,1-12.03,17.99,47.493,47.493,0,0,1-7.07,6.18c-5.34,1.71-10.8,3.51-16.29,5.46-26.03,9.17-52.42,21.14-68.19,35.41C56.16,451.31,50.26,511.14,50.26,511.14H461.74s-5.87-59.83-60.18-108.98c-19.43-17.6-54.58-31.6-85.37-41.35-4.41-3.21-12.06-10.23-18.45-23.69-11.63-24.53-3.87-68.58-3.87-68.58Z"></path>
  <path fill="#1d1d1b" d="M252.365,314.763a47.11,47.11,0,0,0,4.665-1.127c12.357-3.674,23.842-13.483,34.446-20.676-1.853-21.6,2.4-24.423,2.4-24.423H217.916s3.8,21.609,2.089,42.986C230.274,315.127,241.6,316.792,252.365,314.763Z"></path>
  <path fill="#fff" d="M257.542,302.533c-17.3,0-48.713-12.605-64.321-47.333-16.416-36.526-15.822-101.831-15.814-102.487,0-.235.124-22.018,9.8-43.467,12.869-28.542,35.69-43.014,67.826-43.014,23.445,0,42.192,7.053,55.721,20.962,24.451,25.135,23.651,64.607,23.641,65,0,16.676-1.122,73.482-15.838,106.141-5.666,12.575-15.993,24.175-29.077,32.664C278.511,298.114,266.274,302.533,257.542,302.533Z"></path>
  <path d="M255.029,67.732c23.015,0,41.4,6.895,54.632,20.492,24,24.661,23.24,63.541,23.23,63.929v.086a462.354,462.354,0,0,1-2.8,50.782c-2.664,23.2-7.007,41.6-12.909,54.7-12.091,26.835-42.887,43.312-59.643,43.312-7.033,0-18.824-2.552-30.826-9.713a80.868,80.868,0,0,1-32.127-36.735c-16.278-36.218-15.69-101.2-15.682-101.888,0-.215.136-21.759,9.7-42.917,5.539-12.253,13.125-22,22.547-28.954,11.763-8.688,26.525-13.094,43.874-13.094m0-3c-79.122,0-79.122,87.963-79.122,87.963s-.8,65.86,15.946,103.12,50.228,48.218,65.689,48.218c17.1,0,49.442-16.37,62.378-45.08,13.777-30.576,15.978-82.092,15.97-106.715,0,0,2.475-87.506-80.861-87.506Z"></path>
  <path d="M226.788 244.744a160.917 160.917 0 0057.359-3.859.5.5 0 01.3.955 101.58 101.58 0 01-43.335 6.21 88.135 88.135 0 01-14.491-2.321.5.5 0 01.169-.985zM237.375 254.7a38.084 38.084 0 0028.047-.252.5.5 0 11.381.925c-.879.288-2.646.786-3.546.993a46.259 46.259 0 01-18.093.894 52.322 52.322 0 01-7.153-1.629.5.5 0 11.364-.931z"></path>
  <g>
    <ellipse cx="290.327" cy="181.634" rx="6.014" ry="12.053"></ellipse>
    <path d="M290.327,194.186c-3.653,0-6.515-5.514-6.515-12.553s2.862-12.552,6.515-12.552,6.514,5.514,6.514,12.552S293.979,194.186,290.327,194.186Zm0-24.105c-2.989,0-5.515,5.291-5.515,11.552s2.526,11.553,5.515,11.553,5.514-5.29,5.514-11.553S293.315,170.081,290.327,170.081Z"></path>
    <g>
      <ellipse cx="221.673" cy="181.634" rx="6.014" ry="12.053"></ellipse>
      <path d="M221.673,194.186c-3.652,0-6.514-5.514-6.514-12.553s2.862-12.552,6.514-12.552,6.515,5.514,6.515,12.552S225.326,194.186,221.673,194.186Zm0-24.105c-2.988,0-5.514,5.291-5.514,11.552s2.526,11.553,5.514,11.553,5.515-5.29,5.515-11.553S224.662,170.081,221.673,170.081Z"></path>
    </g>
  </g>
  <path d="M250.876 200.919c-.961 4.88-1.273 9.769-2.261 14.706l-.783-1.678 7.224 4.328a.505.505 0 01-.416.91l-8-2.64a1.275 1.275 0 01-.783-1.679c.762-2.247 1.375-4.656 2.01-7.037s1.246-4.8 2.042-7.175a.5.5 0 01.964.265zM302.787 160.164a36.668 36.668 0 00-23.642-.725.667.667 0 01-.834-.439.7.7 0 01.435-.849 25.054 25.054 0 017.54-2.645 33.705 33.705 0 014.827-.473c4.275.163 9.28-.063 12.152 3.87l.239.346a.613.613 0 01-.717.915zM210.053 158.9a38.02 38.02 0 0124.519-.753.667.667 0 01-.25 1.3 70.906 70.906 0 00-11.986-.145c-4.186.114-7.406 1.991-11.806.859l-.421-.115a.607.607 0 01-.056-1.146z"></path>
  <g>
    <path fill="#fff" d="M51.877,509.64c6.5-78.319,64.737-131.293,94.435-137.8a74.79,74.79,0,0,0,22.557-9,2.329,2.329,0,0,1,1.2-.338,2.241,2.241,0,0,1,1.478.559c17.92,15.419,80.164,79.9,80.791,80.546l1.069,1.109,1.08-1.1c.655-.666,65.619-66.812,83.14-83.016a1.409,1.409,0,0,1,.972-.386,1.567,1.567,0,0,1,.882.282,74.869,74.869,0,0,0,26.211,11.339c29.7,6.512,87.932,59.486,94.435,137.805Z"></path>
    <path d="M339.109,358.759l-.451,2.994A76.328,76.328,0,0,0,365.366,373.3c7.067,1.549,16.025,6.055,25.225,12.687a157.1,157.1,0,0,1,29.562,28.393,174.335,174.335,0,0,1,38.333,93.759H53.514a174.335,174.335,0,0,1,38.333-93.759c19.742-24.409,41.741-38.22,54.787-41.08a76.316,76.316,0,0,0,23.008-9.175.818.818,0,0,1,.423-.124.753.753,0,0,1,.5.2c17.867,15.374,80.063,79.8,80.69,80.451l2.14,2.218,2.159-2.2c.654-.666,65.592-66.786,83.091-82.968a.1.1,0,0,1-.05.015h-.005l.519-2.955m-.514-.045a2.912,2.912,0,0,0-1.99.785c-17.751,16.416-83.192,83.067-83.192,83.067s-62.711-65-80.892-80.642a3.748,3.748,0,0,0-2.456-.922,3.816,3.816,0,0,0-1.968.553,73.226,73.226,0,0,1-22.106,8.815c-28.975,6.353-89.718,59.056-95.736,140.77h411.49c-6.018-81.714-66.761-134.417-95.736-140.77a73.4,73.4,0,0,1-25.664-11.1l-.02-.013a3.056,3.056,0,0,0-1.73-.545Z"></path>
  </g>
  <path d="M336.311,169.6c-1.39,1.978-1.288,5.722-1.659,7.884l-1.883,10.974c-2.254-6.359-4.334-12.866-7.174-18.916a29.682,29.682,0,0,1-2.509-18.5,30.848,30.848,0,0,1-14.514-32.261c-13.98,5.86-32.139-3.354-35.665-18.1a23.859,23.859,0,0,1-43.03-4.465,25.245,25.245,0,0,1-10.344,20.888c-6.672,4.78-15.038,5.537-22.765,3.314,14.486,17.762-18.47,48.86-17.254,69.547-.267-4.529-2.528-8.716-2.654-13.416-.135-5.092,2.29-9.848-4.53-10.109-11.759-.451-14.089-20.631-12.7-32.317s6.752-22.613,8.2-34.291c1.113-8.963-.055-18.408,3.4-26.75,5.567-13.427,20.877-19.463,34.647-24.116,21.106-7.132,42.717-14.348,64.994-14.042,12.989.178,25.791,2.919,38.491,5.649,8.576,1.843,17.268,3.727,25.057,7.761,20.559,10.647,31.313,35.215,30.392,58.349-.456,11.437-3.331,22.623-6.191,33.707-1.787,6.925-3.649,14.017-7.754,19.873,0,1.879-4.743,5.239-6.186,6.115-2.243,1.362-5.6,1.085-7.557,2.4A3.18,3.18,0,0,0,336.311,169.6Z"></path>
</svg>
