<?xml version="1.0" encoding="iso-8859-1"?>
<!-- Uploaded to: SVG Repo, www.svgrepo.com, Generator: SVG Repo Mixer Tools -->
<!DOCTYPE svg PUBLIC "-//W3C//DTD SVG 1.1//EN" "http://www.w3.org/Graphics/SVG/1.1/DTD/svg11.dtd">
<svg fill="#000000" height="800px" width="800px" version="1.1" id="Capa_1" xmlns="http://www.w3.org/2000/svg" xmlns:xlink="http://www.w3.org/1999/xlink" 
	 viewBox="0 0 301.891 301.891" xml:space="preserve">
<g>
	<path d="M150.945,75.239c-21.384,0-38.78,17.396-38.78,38.78s17.396,38.78,38.78,38.78s38.78-17.396,38.78-38.78
		S172.329,75.239,150.945,75.239z"/>
	<path d="M252.64,88.506c-8.611-6.834-13.002-17.434-11.744-28.355c1.143-9.934-2.257-19.686-9.326-26.756
		c-7.071-7.07-16.818-10.463-26.756-9.325c-10.927,1.263-21.521-3.133-28.355-11.745C170.242,4.492,160.943,0,150.945,0
		c-9.999,0-19.299,4.492-25.514,12.325c-6.833,8.61-17.436,13.003-28.351,11.745c-9.936-1.148-19.688,2.253-26.76,9.324
		c-7.069,7.07-10.469,16.822-9.326,26.758c1.258,10.92-3.133,21.52-11.742,28.353c-7.834,6.214-12.327,15.515-12.327,25.515
		c0,9.998,4.492,19.297,12.325,25.514c8.612,6.833,13.002,17.433,11.744,28.355c-1.143,9.935,2.257,19.688,9.324,26.752
		c2.551,2.552,5.456,4.618,8.59,6.173l-24.072,48.64c-1.5,3.031-1.893,6.491-1.111,9.782l8.853,37.254
		c0.483,2.033,1.846,3.746,3.719,4.673c1.873,0.927,4.061,0.972,5.971,0.123l34.989-15.556c3.09-1.374,5.603-3.785,7.103-6.817
		l26.041-52.617c3.345,1.139,6.897,1.744,10.544,1.744c3.647,0,7.198-0.604,10.543-1.744l26.041,52.617
		c1.5,3.031,4.013,5.443,7.103,6.817l34.989,15.556c1.91,0.849,4.098,0.804,5.971-0.123c1.873-0.927,3.236-2.64,3.719-4.673
		l8.853-37.254c0.782-3.291,0.389-6.751-1.111-9.782l-24.072-48.638c3.132-1.554,6.035-3.619,8.584-6.169
		c7.072-7.069,10.472-16.822,9.329-26.759c-1.258-10.921,3.132-21.521,11.745-28.354c7.832-6.216,12.324-15.515,12.324-25.513
		C264.965,104.02,260.472,94.719,252.64,88.506z M150.945,177.8c-35.148,0-63.78-28.653-63.78-63.78
		c0-35.057,28.567-63.78,63.78-63.78c35.223,0,63.78,28.732,63.78,63.78C214.726,149.109,186.131,177.8,150.945,177.8z"/>
</g>
</svg>