<?xml version="1.0" encoding="iso-8859-1"?>
<!-- Uploaded to: SVG Repo, www.svgrepo.com, Generator: SVG Repo Mixer Tools -->
<!DOCTYPE svg PUBLIC "-//W3C//DTD SVG 1.1//EN" "http://www.w3.org/Graphics/SVG/1.1/DTD/svg11.dtd">
<svg fill="#000000" height="800px" width="800px" version="1.1" id="Capa_1" xmlns="http://www.w3.org/2000/svg" xmlns:xlink="http://www.w3.org/1999/xlink" 
	 viewBox="0 0 277.299 277.299" xml:space="preserve">
<g>
	<path d="M248.325,237.299H28.973c-11.046,0-20,8.954-20,20s8.954,20,20,20h219.353c11.046,0,20-8.954,20-20
		S259.371,237.299,248.325,237.299z"/>
	<path d="M274.201,121.176c-3.999-18.229-15.083-32.794-30.412-39.961c-4.71-2.202-9.71-3.664-14.868-4.37
		c-8.381-16.454-22.173-28.215-38.793-32.534c-5.561-1.445-11.215-2.025-16.845-1.784c0.035-3.916-1.082-7.797-3.268-11.135
		L155.381,9.043C151.685,3.4,145.395,0,138.649,0c-6.745,0-13.036,3.4-16.731,9.043l-14.636,22.349
		c-2.186,3.338-3.303,7.219-3.268,11.135c-5.636-0.237-11.286,0.341-16.844,1.784c-16.619,4.319-30.412,16.08-38.793,32.534
		c-5.158,0.706-10.158,2.168-14.867,4.37c-15.33,7.167-26.414,21.732-30.413,39.961c-3.377,15.399-1.606,32.348,4.966,48.114
		c0.262,5.447,0.648,17.885,0.915,28.511c0.272,10.847,9.144,19.498,19.994,19.498h219.353c10.851,0,19.722-8.651,19.994-19.498
		c0.267-10.626,0.653-23.064,0.916-28.51C275.808,153.519,277.578,136.573,274.201,121.176z M81.162,168.025L66.87,189.41
		c-0.763,1.142-2.046,1.828-3.42,1.828c-1.374,0-2.657-0.686-3.42-1.828l-14.293-21.385c-1.477-2.21-1.477-5.092,0-7.302
		l14.293-21.385c0.763-1.142,2.046-1.828,3.42-1.828c1.374,0,2.657,0.686,3.42,1.828l14.293,21.385
		C82.639,162.933,82.639,165.815,81.162,168.025z M156.362,132.025l-14.293,21.385c-0.763,1.142-2.046,1.828-3.42,1.828
		c-1.374,0-2.657-0.686-3.42-1.828l-14.293-21.385c-1.477-2.21-1.477-5.092,0-7.302l14.293-21.385
		c0.763-1.142,2.046-1.828,3.42-1.828c1.374,0,2.657,0.686,3.42,1.828l14.293,21.385
		C157.839,126.933,157.839,129.815,156.362,132.025z M231.561,168.025l-14.293,21.385c-0.763,1.142-2.046,1.828-3.42,1.828
		s-2.657-0.686-3.42-1.828l-14.293-21.385c-1.477-2.21-1.477-5.092,0-7.302l14.293-21.385c0.763-1.142,2.046-1.828,3.42-1.828
		s2.657,0.686,3.42,1.828l14.293,21.385C233.038,162.933,233.038,165.815,231.561,168.025z"/>
</g>
</svg>